<?xml version="1.0" standalone="no"?>
<!DOCTYPE svg PUBLIC "-//W3C//DTD SVG 20010904//EN"
 "http://www.w3.org/TR/2001/REC-SVG-20010904/DTD/svg10.dtd">
<svg version="1.0" xmlns="http://www.w3.org/2000/svg"
 width="1280.000000pt" height="642.000000pt" viewBox="0 0 1280.000000 642.000000"
 preserveAspectRatio="xMidYMid meet">
<metadata>
Created by potrace 1.15, written by Peter Selinger 2001-2017
</metadata>
<g transform="translate(0.000000,642.000000) scale(0.100000,-0.100000)"
fill="#000000" stroke="none">
<path d="M1974 6410 c-12 -5 -69 -15 -125 -24 -145 -21 -309 -54 -409 -83 -47
-13 -110 -31 -140 -39 -74 -21 -294 -131 -361 -181 -30 -23 -72 -50 -95 -61
-22 -11 -60 -37 -84 -57 -24 -20 -61 -45 -82 -56 -21 -11 -45 -30 -54 -44 -9
-13 -24 -27 -34 -30 -11 -3 -32 -28 -49 -55 -17 -27 -47 -67 -66 -89 -42 -46
-123 -172 -159 -246 -30 -61 -89 -346 -83 -395 11 -74 25 -119 45 -145 32 -41
31 -171 -3 -286 -13 -46 -25 -90 -25 -98 0 -8 -25 -76 -55 -150 -57 -142 -93
-244 -125 -347 -10 -34 -22 -70 -28 -80 -5 -11 -17 -50 -26 -89 -14 -58 -16
-116 -14 -350 2 -221 5 -275 15 -255 6 14 16 90 22 170 8 116 20 181 57 325
26 99 52 205 59 235 7 30 24 82 38 115 14 33 28 76 32 95 6 34 26 88 95 268
36 94 59 213 55 287 -2 31 -18 87 -45 150 -39 92 -42 105 -36 160 8 78 44 266
54 279 4 6 13 27 20 47 17 49 95 178 164 269 62 82 167 180 267 250 35 25 82
61 105 81 22 20 77 55 121 78 101 53 130 78 112 99 -10 13 -8 14 10 8 16 -5
29 -1 45 13 12 12 33 21 47 21 14 0 53 14 86 30 33 16 75 30 93 30 18 0 49 7
70 15 20 9 46 15 57 13 11 -1 25 1 32 5 16 10 332 55 423 60 234 13 557 -44
684 -120 128 -77 140 -88 220 -210 43 -65 91 -131 106 -148 33 -36 50 -84 50
-141 0 -54 -8 -74 -30 -74 -16 0 -16 -4 1 -87 22 -106 24 -164 5 -206 -8 -18
-20 -50 -26 -71 -36 -113 -164 -302 -243 -358 -126 -89 -206 -113 -418 -124
-131 -7 -236 7 -337 44 -42 16 -48 21 -52 54 -4 29 -16 45 -62 83 -31 25 -64
58 -73 72 -35 53 -57 145 -59 243 -1 88 2 100 31 160 19 38 70 109 123 170
109 126 162 157 296 172 81 10 87 9 138 -16 67 -33 87 -70 60 -110 -33 -51
-82 -60 -144 -25 l-38 22 -63 -22 c-35 -11 -71 -21 -81 -21 -14 0 -18 -8 -18
-33 0 -24 -8 -41 -31 -63 -17 -16 -42 -51 -55 -79 -27 -54 -64 -181 -64 -217
0 -53 132 -232 177 -241 16 -3 55 -15 88 -28 90 -33 186 -36 271 -9 133 42
199 83 273 171 46 54 66 90 92 162 34 92 34 92 32 256 -4 246 -33 335 -161
486 -73 87 -136 122 -282 160 -101 26 -112 26 -290 21 -402 -12 -385 -10 -625
-106 -44 -18 -104 -40 -132 -51 -29 -10 -70 -31 -90 -48 -21 -16 -76 -50 -123
-76 -47 -25 -94 -55 -105 -65 -11 -11 -41 -26 -65 -35 -73 -26 -190 -153 -244
-265 -51 -104 -94 -225 -101 -280 -4 -30 -12 -72 -18 -93 -9 -34 -7 -47 23
-120 38 -94 91 -153 201 -225 55 -35 82 -45 155 -58 49 -8 93 -19 98 -24 6 -6
-2 -18 -18 -31 -32 -25 -57 -76 -51 -105 2 -10 6 -31 10 -46 3 -18 20 -37 47
-54 35 -22 39 -28 25 -36 -33 -18 -20 -38 27 -38 36 0 50 6 89 40 39 35 51 40
94 40 62 0 97 22 89 56 -6 24 7 33 19 14 4 -7 13 -6 27 1 16 9 19 18 15 45 -7
42 18 62 49 39 11 -8 31 -15 47 -15 20 0 27 -5 27 -20 0 -21 6 -22 165 -26
110 -2 115 -3 124 -26 8 -22 15 -23 217 -35 115 -7 236 -12 269 -12 81 0 287
-19 358 -33 78 -15 59 -30 -23 -18 -36 5 -92 6 -125 2 l-60 -6 50 -7 c28 -4
126 -10 219 -14 93 -3 173 -8 178 -11 5 -3 54 -12 110 -20 61 -8 105 -19 112
-28 6 -8 25 -16 41 -18 23 -2 29 -7 27 -21 -3 -15 1 -17 17 -12 16 5 21 2 21
-13 0 -35 40 -60 113 -67 37 -4 69 -11 72 -15 2 -4 -4 -15 -15 -25 -22 -20
-27 -55 -7 -55 6 0 19 15 28 33 10 21 35 42 75 64 66 36 89 41 80 17 -5 -14
-1 -15 31 -9 53 10 68 23 48 45 -22 24 -19 36 16 61 27 19 38 21 92 15 34 -4
78 -9 97 -10 34 -3 117 -23 133 -33 5 -3 -24 -26 -65 -52 -74 -48 -124 -101
-94 -101 8 0 36 18 61 40 96 83 175 106 309 91 5 -1 3 -8 -4 -16 -7 -8 -29
-15 -49 -15 -60 0 -229 -63 -246 -91 -18 -29 16 -23 74 11 41 26 89 45 140 55
107 23 111 25 111 40 0 25 -31 45 -71 45 -22 0 -39 5 -39 11 0 8 12 10 35 6
31 -5 37 -3 45 19 11 28 10 27 47 13 15 -6 91 -17 169 -24 77 -8 153 -19 169
-25 16 -6 64 -14 107 -17 43 -3 81 -10 85 -16 4 -6 -33 -7 -106 -3 -70 5 -111
4 -111 -2 0 -16 27 -22 100 -22 38 0 90 -4 117 -10 41 -8 231 -32 272 -34 7
-1 15 7 17 17 1 11 4 20 6 20 2 1 13 8 25 15 13 6 34 12 49 12 23 0 25 -3 19
-28 l-6 -28 78 -13 c43 -7 98 -16 123 -21 25 -5 84 -12 133 -16 l87 -7 0 24
c0 24 2 24 53 19 l52 -5 1 -130 c3 -334 30 -476 124 -672 32 -67 73 -143 90
-168 52 -75 234 -258 295 -295 32 -19 76 -49 99 -65 22 -17 95 -62 161 -100
181 -105 218 -119 165 -59 -33 38 -30 57 8 47 29 -7 59 -60 43 -76 -16 -16
-13 -24 10 -30 35 -9 16 -32 -23 -29 -20 2 -39 -2 -43 -8 -5 -8 17 -11 81 -10
127 3 191 -10 250 -49 38 -25 56 -31 81 -27 20 3 36 0 43 -9 15 -18 -60 -126
-174 -250 -60 -65 -76 -89 -68 -97 7 -7 12 -20 12 -30 0 -21 -65 -153 -79
-163 -10 -6 -61 -79 -74 -105 -25 -52 -123 -172 -173 -213 -32 -26 -120 -78
-194 -115 l-135 -67 -100 2 c-151 2 -184 9 -196 40 -15 40 -1 81 42 123 22 21
62 66 89 99 26 34 71 82 100 108 28 25 58 59 66 76 9 16 41 60 70 96 30 36 70
84 88 106 38 46 60 85 49 85 -15 0 -223 -247 -223 -265 0 -3 -21 -26 -48 -52
-26 -27 -99 -104 -161 -172 -112 -121 -115 -124 -119 -177 -3 -38 1 -71 16
-111 11 -32 32 -94 46 -138 14 -45 40 -106 59 -138 38 -62 47 -84 72 -169 11
-37 15 -70 11 -95 -22 -125 -12 -188 74 -458 15 -49 34 -119 41 -155 15 -83
25 -93 51 -57 19 27 24 28 70 22 38 -6 62 -2 107 15 70 26 112 19 179 -31 58
-42 72 -74 72 -159 l0 -70 -39 0 c-45 0 -57 11 -66 65 -13 68 -61 145 -92 145
-19 0 -16 -8 11 -41 13 -16 29 -51 35 -79 17 -81 16 -88 -24 -96 -46 -8 -62 6
-71 64 -7 51 -37 102 -60 102 -18 0 -18 -9 1 -30 18 -20 37 -121 25 -133 -4
-5 -29 -7 -56 -5 l-49 3 -7 54 c-5 48 -18 70 -41 71 -4 0 -4 -12 0 -28 4 -15
8 -43 8 -62 0 -34 -1 -35 -45 -38 -45 -3 -90 3 -220 31 -77 16 -102 28 -122
59 -11 16 -13 30 -7 46 7 18 1 42 -24 100 -19 43 -44 110 -56 151 -12 40 -33
90 -47 110 -13 20 -29 63 -35 94 -5 32 -16 76 -24 97 -8 22 -19 68 -25 103 -6
34 -13 76 -16 92 l-6 30 31 -36 c71 -85 208 -133 267 -94 30 20 20 39 -26 49
-30 6 -65 34 -86 72 -7 10 -15 16 -19 12 -10 -10 13 -65 31 -72 8 -3 14 -10
14 -16 0 -17 -29 -11 -51 11 -15 15 -24 17 -33 10 -21 -18 -82 32 -100 81 -8
24 -16 52 -18 63 -4 26 -21 22 -29 -7 -5 -19 -10 -13 -37 44 -17 37 -33 78
-37 90 -4 13 -20 55 -37 93 -16 39 -36 84 -43 100 -31 74 -225 316 -357 445
-91 90 -128 141 -128 178 0 37 56 136 121 214 34 40 68 83 76 96 9 12 69 71
135 131 114 105 137 132 219 259 48 75 73 92 148 99 72 7 92 23 29 24 -24 0
-51 3 -60 7 -16 7 -16 10 6 47 24 38 25 39 89 41 59 2 116 19 104 30 -4 4
-220 33 -254 34 -17 0 -44 30 -37 41 3 5 17 9 32 8 60 -2 166 11 176 22 8 9 4
10 -17 5 -15 -4 -68 -7 -116 -7 -71 0 -97 4 -130 20 -22 12 -46 21 -54 21 -7
0 -24 11 -37 25 -26 28 -40 32 -40 11 0 -15 67 -76 83 -76 5 0 30 -18 55 -40
25 -22 65 -49 89 -60 56 -25 62 -42 29 -85 -21 -28 -34 -35 -60 -35 -41 0
-114 25 -138 47 -13 12 -22 13 -29 6 -8 -8 5 -21 45 -47 31 -20 62 -36 70 -36
7 0 18 -6 24 -13 8 -9 0 -29 -31 -77 -67 -104 -91 -131 -213 -245 l-116 -108
-36 13 c-39 14 -33 18 -90 -58 -9 -12 -27 -35 -39 -49 -13 -14 -23 -30 -23
-35 0 -23 -270 -270 -309 -283 -23 -7 -28 -21 -8 -28 24 -8 -25 -49 -52 -44
-16 3 -34 -2 -49 -13 -13 -11 -48 -24 -78 -30 -30 -6 -67 -18 -82 -26 -15 -8
-33 -14 -39 -14 -25 0 -12 21 22 37 35 17 50 41 18 28 -10 -4 -42 -16 -70 -27
-29 -12 -53 -25 -53 -30 0 -5 4 -7 9 -4 14 9 41 -4 41 -20 0 -19 12 -18 94 12
l71 25 -24 -25 c-36 -39 -142 -87 -202 -92 -258 -23 -758 -20 -819 4 -39 15
-12 20 164 26 88 3 164 10 168 14 5 5 -116 8 -269 8 -153 -1 -290 3 -305 7
-42 11 -33 27 15 27 23 0 57 4 76 10 18 5 89 15 157 21 110 11 122 14 114 29
-6 11 -4 26 6 44 17 35 10 50 -18 35 -11 -6 -29 -9 -39 -6 -29 8 -34 -12 -8
-39 14 -15 19 -28 13 -33 -9 -10 -231 -30 -369 -34 -77 -2 -111 -18 -52 -25
16 -2 37 -12 46 -21 11 -11 47 -23 87 -29 88 -15 157 -34 176 -49 28 -24 253
-46 403 -40 278 11 605 41 700 63 26 6 28 5 17 -8 -7 -9 -36 -26 -65 -39 -49
-22 -69 -24 -322 -31 -531 -16 -705 -17 -752 -9 -26 5 -52 7 -57 3 -20 -12 43
-23 173 -32 75 -4 154 -15 177 -23 97 -35 227 -48 409 -41 119 5 175 4 175 -3
0 -10 -108 -20 -285 -28 -91 -4 -90 -4 -79 -14 5 -5 200 -1 464 10 250 10 470
18 488 19 28 0 32 3 28 18 -5 14 3 23 31 37 l38 19 -33 4 c-18 2 -39 -1 -46
-7 -17 -14 -169 -36 -191 -27 -15 5 -15 9 -4 23 13 15 11 16 -16 8 -16 -5 -58
-10 -92 -11 -34 -1 -66 -5 -72 -8 -6 -4 -11 -2 -11 3 0 7 -30 11 -77 11 -67 1
-76 3 -61 14 11 8 62 15 135 19 65 4 144 9 177 13 57 7 58 7 47 -14 -16 -29
-7 -28 53 10 28 17 62 38 74 45 34 21 21 27 -19 9 -37 -15 -203 -36 -284 -36
-47 1 -49 1 -30 16 11 9 39 24 63 35 65 28 55 43 -25 34 -38 -3 -78 -9 -90
-12 -64 -15 9 43 77 61 14 4 67 26 118 48 51 23 95 38 99 34 10 -10 -9 -38
-43 -61 -67 -46 -78 -55 -73 -60 8 -7 105 57 177 116 21 17 13 29 -18 29 -16
0 -30 5 -30 10 0 13 135 100 155 100 10 0 15 -10 15 -27 0 -16 14 -48 30 -73
16 -25 30 -49 30 -55 0 -5 -14 -28 -30 -49 -17 -22 -27 -42 -24 -45 6 -6 37
28 54 58 7 14 11 14 36 1 15 -8 41 -33 58 -54 17 -22 56 -67 86 -100 103 -112
122 -138 112 -148 -17 -17 -297 -51 -335 -41 -29 7 -9 23 31 24 20 0 46 4 57
9 18 8 18 9 -5 9 -14 1 -63 -3 -110 -9 -47 -5 -206 -14 -355 -20 -148 -5 -283
-14 -300 -18 -38 -11 -434 3 -540 18 -44 7 -118 18 -165 26 -47 9 -125 21
-175 29 -49 7 -133 21 -185 30 -52 9 -124 18 -160 20 -36 2 -85 8 -110 13 -25
6 -97 18 -160 27 -213 30 -295 46 -410 82 -63 19 -167 51 -230 70 -63 20 -170
60 -238 90 -68 29 -147 60 -175 67 -58 15 -66 25 -37 51 11 10 20 23 20 30 0
7 9 20 21 31 65 59 174 253 196 349 22 97 25 222 7 285 -26 89 -95 272 -117
308 -15 26 -18 44 -14 80 4 26 2 65 -2 87 -26 119 -33 166 -35 220 -1 58 -2
60 -28 63 -26 3 -28 1 -28 -35 0 -21 5 -65 11 -98 5 -33 10 -96 10 -139 0 -87
16 -161 48 -224 12 -23 21 -49 21 -59 0 -10 7 -28 15 -40 8 -11 26 -60 40
-108 44 -153 30 -360 -32 -457 -70 -113 -207 -250 -407 -412 -124 -99 -195
-164 -346 -312 -85 -84 -195 -183 -245 -220 -49 -36 -116 -91 -147 -120 -35
-34 -83 -66 -125 -85 -37 -17 -87 -39 -111 -50 -23 -10 -52 -19 -63 -19 -43 0
-119 -61 -148 -118 -21 -40 -35 -384 -19 -472 3 -20 18 -44 34 -58 25 -22 34
-24 88 -18 34 3 72 8 86 12 21 4 35 -3 72 -38 38 -35 47 -51 53 -90 8 -55 -1
-106 -16 -91 -5 5 -12 27 -16 49 -7 46 -40 85 -94 109 -37 17 -40 17 -58 1
-14 -13 -24 -14 -45 -6 -15 5 -53 9 -84 8 -31 -1 -78 2 -104 6 -42 8 -51 6
-92 -20 -25 -16 -45 -35 -46 -41 0 -18 10 -16 55 12 69 42 117 29 154 -42 16
-32 14 -80 -5 -87 -9 -3 -58 -6 -110 -6 l-94 0 0 -37 0 -38 162 3 c90 1 172 6
183 11 11 5 124 14 250 21 127 6 271 13 320 15 102 5 71 -9 -47 -21 -38 -4
-68 -11 -68 -16 0 -6 82 -7 218 -3 119 4 226 6 237 5 78 -8 401 2 505 16 91
12 208 17 427 18 166 1 305 4 309 9 4 4 2 13 -5 20 -14 14 -389 17 -566 5
-141 -9 -454 -15 -449 -7 4 6 144 15 412 26 111 4 162 9 159 17 -3 8 -90 10
-298 7 -162 -2 -297 -5 -301 -7 -3 -2 -116 -7 -250 -10 -287 -7 -354 -9 -469
-19 l-86 -8 -6 39 c-4 22 -7 52 -7 67 0 41 -33 98 -84 145 -50 46 -74 51 -166
31 -57 -12 -71 -6 -96 42 -12 23 -12 55 -4 188 8 139 13 167 34 208 39 77 66
96 145 104 60 5 79 13 162 64 52 31 103 66 114 76 11 10 43 28 70 40 53 23 78
45 305 262 162 156 183 170 204 141 55 -74 96 -405 72 -585 -8 -64 -7 -67 22
-100 17 -19 43 -41 59 -49 49 -26 196 -131 236 -169 61 -57 157 -179 157 -198
0 -39 -10 -41 -224 -41 -202 -1 -400 -12 -536 -32 -36 -5 -86 -12 -111 -15
-26 -3 -55 -12 -65 -20 -18 -13 -17 -14 11 -15 17 0 74 5 127 12 94 11 129 7
98 -12 -8 -5 -41 -12 -72 -16 -32 -4 -58 -11 -58 -15 0 -11 -2 -11 100 2 100
12 129 24 85 35 l-29 7 25 9 c13 5 161 12 329 15 l306 5 37 -25 c57 -38 102
-50 161 -43 65 9 172 7 261 -4 157 -21 256 -10 318 32 15 11 42 24 59 29 28 8
35 6 49 -12 16 -22 21 -22 235 -18 187 3 330 4 459 2 51 -1 487 -5 725 -6 124
-1 284 2 355 6 72 5 146 10 165 11 19 1 55 8 79 16 36 11 61 12 153 2 61 -7
113 -10 116 -7 16 16 -26 25 -138 30 -339 16 -358 30 -52 39 119 4 241 9 271
12 60 7 65 -9 6 -20 -57 -11 -56 -30 1 -22 96 13 360 18 459 8 55 -5 104 -7
109 -4 18 11 -29 32 -73 32 -25 0 -64 5 -86 11 -22 5 -96 12 -164 14 -71 3
-129 10 -135 16 -8 8 -3 10 18 7 16 -1 31 2 33 8 5 16 -54 22 -257 29 -164 5
-248 12 -283 22 -15 4 -18 11 -12 39 8 45 -19 47 -43 3 l-17 -31 -150 7 c-164
8 -307 8 -342 0 -13 -3 -23 -12 -23 -21 0 -13 7 -14 43 -8 58 10 296 6 387 -7
41 -6 107 -12 145 -13 187 -8 451 -29 459 -36 4 -5 -20 -8 -55 -7 -35 0 -143
-4 -239 -10 -126 -8 -179 -8 -192 0 -13 9 -21 8 -30 -1 -6 -6 -21 -12 -33 -12
-11 0 -31 -7 -43 -16 -19 -13 -37 -14 -134 -5 -113 11 -140 9 -97 -7 20 -8
221 -32 270 -32 12 0 12 -1 0 -9 -30 -19 -351 -19 -1051 -1 -239 6 -529 13
-645 15 -115 3 -220 7 -233 10 -35 8 -16 25 28 25 60 0 58 19 -2 22 -45 3 -53
6 -50 21 5 30 -27 113 -54 138 -21 19 -40 25 -107 30 -100 8 -210 32 -298 66
-55 21 -80 39 -141 102 -41 42 -89 100 -107 129 l-33 52 4 113 c4 105 6 118
45 207 37 86 42 109 54 233 8 90 17 137 24 137 7 0 38 -9 70 -20 32 -11 101
-27 154 -35 146 -23 243 -42 273 -53 14 -6 63 -16 108 -22 46 -6 106 -20 134
-30 28 -11 92 -26 141 -34 50 -9 110 -22 135 -29 81 -25 357 -55 865 -93 283
-22 1216 -25 1320 -6 130 25 134 25 172 -38 18 -30 42 -82 53 -115 10 -33 35
-98 55 -144 19 -46 56 -158 81 -249 25 -90 59 -198 75 -240 16 -41 27 -77 25
-80 -3 -3 -37 0 -75 7 -75 12 -190 15 -215 5 -38 -15 -8 -22 107 -27 67 -3
138 -10 158 -16 33 -10 39 -18 59 -74 13 -34 32 -80 43 -102 12 -22 24 -60 27
-85 4 -25 11 -53 15 -63 6 -15 -1 -17 -71 -19 -44 -1 -90 -1 -104 -1 -45 2
-492 34 -610 43 -313 26 -1097 -2 -1172 -41 -22 -12 -23 -35 -3 -43 24 -9 106
5 145 24 21 10 61 18 100 18 36 1 81 4 100 8 19 3 69 7 111 8 41 1 79 5 85 8
5 3 36 2 69 -3 37 -5 64 -4 71 2 15 12 264 10 264 -2 0 -11 -46 -23 -58 -15
-11 6 -237 -20 -252 -29 -6 -3 -10 -11 -10 -17 0 -11 23 -10 175 11 44 6 136
13 205 16 69 2 185 7 258 11 87 4 137 3 144 -4 7 -7 -8 -14 -48 -22 -97 -19
-115 -25 -117 -35 -3 -14 78 -13 147 3 84 18 449 22 500 5 21 -7 64 -13 95
-13 35 0 65 -6 77 -15 13 -10 46 -14 112 -15 62 0 111 -6 150 -19 88 -28 260
-33 432 -12 133 17 145 27 135 116 -10 94 -22 127 -60 166 -19 20 -64 49 -100
64 l-64 28 -81 -17 c-44 -9 -89 -16 -98 -16 -23 0 -62 40 -62 63 0 15 21 17
223 19 122 1 256 3 297 3 41 1 82 -2 90 -6 9 -5 -21 -9 -70 -9 -94 -1 -155
-17 -155 -40 0 -12 23 -16 125 -20 69 -3 130 -8 136 -12 6 -4 85 1 175 11 122
14 168 16 178 8 21 -18 308 -14 326 4 3 4 63 5 133 2 70 -2 141 -1 159 2 43 8
52 38 42 150 -13 145 -35 160 -216 150 -145 -7 -185 3 -239 61 -23 24 -47 44
-54 44 -12 0 -96 59 -207 145 -28 22 -73 53 -100 70 -56 35 -291 261 -333 321
-16 23 -59 92 -96 155 -36 63 -79 129 -95 147 -46 52 -40 79 33 137 73 58 170
178 203 252 13 28 28 54 34 57 5 4 17 32 26 63 25 86 74 173 151 267 14 17 45
59 70 94 41 58 47 62 83 62 79 0 95 -8 115 -58 28 -68 43 -82 89 -82 22 0 54
-4 71 -9 81 -25 367 -47 721 -56 249 -6 535 -23 610 -35 33 -5 155 -15 270
-20 116 -6 251 -13 300 -16 50 -2 219 -5 377 -7 249 -2 289 -4 305 -19 26 -23
115 -22 186 4 54 19 60 25 81 72 13 28 30 57 39 64 8 7 55 21 104 31 48 10
119 28 157 40 41 13 73 18 79 12 24 -24 -245 -200 -423 -276 -47 -20 -96 -46
-110 -59 -14 -12 -54 -40 -90 -61 -76 -46 -137 -90 -201 -148 -26 -23 -72 -62
-103 -87 -52 -41 -139 -147 -226 -275 -19 -27 -42 -59 -52 -70 -23 -28 -114
-192 -157 -285 -14 -31 -95 -122 -262 -293 -133 -136 -264 -279 -291 -317 -27
-39 -53 -70 -57 -70 -5 0 -25 -13 -45 -29 l-36 -29 31 -25 c25 -20 30 -30 26
-49 -4 -14 -56 -78 -116 -144 -102 -112 -112 -121 -158 -130 -42 -8 -48 -12
-51 -36 -3 -22 2 -30 23 -40 22 -10 33 -8 71 10 82 40 173 48 336 28 79 -9
179 -17 223 -16 109 1 169 -1 308 -12 95 -7 130 -5 176 7 33 8 85 19 117 24
33 5 92 16 133 25 68 16 94 15 78 0 -4 -4 -50 -17 -103 -29 -99 -24 -126 -37
-108 -55 10 -10 133 4 162 19 9 5 40 12 67 15 28 4 71 14 98 22 43 14 52 14
97 -1 44 -15 66 -15 187 -5 173 15 173 15 144 43 -21 21 -30 22 -199 22 -97 1
-256 7 -352 14 -283 21 -566 18 -953 -11 -202 -15 -219 -4 -100 66 59 35 123
98 123 122 0 6 -9 23 -21 38 -30 38 -21 57 34 73 41 12 54 23 92 76 85 119
146 185 213 231 37 25 74 56 82 69 8 14 49 54 90 91 144 127 213 191 234 215
12 14 47 52 79 84 31 33 57 63 57 68 0 9 46 72 104 142 17 21 77 85 132 142
100 101 155 142 175 130 5 -4 35 -57 65 -119 48 -99 67 -127 172 -242 65 -71
121 -137 125 -146 3 -10 27 -32 51 -50 28 -19 50 -44 55 -62 18 -55 31 -307
23 -456 -7 -158 -6 -261 3 -298 4 -15 15 -25 35 -29 37 -7 38 -23 5 -85 -14
-26 -25 -54 -25 -62 0 -27 42 -39 140 -43 52 -2 120 -7 150 -12 30 -5 63 -5
74 -1 11 4 38 3 61 -2 22 -5 56 -6 75 -1 19 4 148 8 285 8 138 1 291 4 340 8
132 11 307 34 337 46 14 5 54 10 89 10 107 2 113 2 148 7 22 4 30 9 24 15 -21
21 -681 7 -968 -21 -102 -9 -111 -9 -125 8 -12 14 -35 20 -95 25 -100 7 -211
41 -248 75 -41 38 -80 109 -74 132 6 25 5 25 -43 0 -44 -23 -56 -45 -15 -30
21 8 27 6 39 -13 26 -40 66 -138 61 -148 -10 -16 -141 -11 -155 6 -8 10 -9 19
-3 28 14 16 23 91 13 106 -5 9 -13 9 -34 0 -22 -10 -29 -10 -42 2 -12 12 -13
21 -4 44 22 58 20 461 -3 610 -1 6 9 10 22 10 14 0 26 6 28 12 2 6 -25 44 -62
85 -36 40 -98 111 -137 158 -40 47 -100 114 -133 150 -33 36 -73 86 -90 110
-16 25 -51 75 -77 111 -27 37 -48 75 -48 84 0 9 11 30 25 47 26 31 32 48 16
48 -18 0 -109 -80 -240 -211 -197 -198 -245 -249 -276 -298 -35 -56 -248 -275
-401 -411 -201 -179 -273 -252 -321 -322 -33 -48 -58 -74 -87 -87 -48 -23
-190 -39 -200 -23 -8 14 148 189 186 208 17 9 28 23 28 35 0 23 26 61 80 118
19 20 52 56 74 81 21 25 67 69 100 99 93 84 173 190 273 364 92 160 283 396
408 506 132 115 369 281 432 302 32 10 38 9 50 -7 7 -10 13 -29 13 -43 1 -42
31 -96 93 -166 50 -55 63 -65 92 -65 l33 0 -5 -59 c-5 -52 -1 -71 28 -143 18
-46 43 -101 56 -123 12 -22 23 -47 23 -56 0 -8 16 -42 36 -75 20 -32 70 -116
110 -186 69 -119 75 -134 90 -226 12 -77 13 -118 6 -186 -7 -63 -6 -120 4
-208 7 -67 10 -142 7 -167 -8 -56 10 -49 38 16 15 36 17 52 9 86 -13 57 -12
199 2 312 10 82 9 102 -6 157 -10 35 -27 78 -37 97 -11 18 -28 58 -39 88 -10
30 -32 76 -48 101 -16 26 -52 92 -80 147 -27 55 -68 132 -91 170 -22 39 -53
94 -67 124 -25 50 -26 57 -13 80 18 31 28 34 194 59 72 11 159 29 195 39 68
20 227 83 270 108 14 8 42 23 63 35 37 20 49 40 24 40 -8 0 -79 -31 -158 -69
-80 -38 -158 -73 -174 -76 -17 -4 -50 -13 -75 -20 -25 -8 -103 -22 -175 -31
-129 -16 -130 -16 -144 5 -7 12 -24 21 -38 21 -26 0 -93 58 -93 80 0 7 18 11
53 9 28 -1 63 3 77 9 14 6 68 18 120 27 52 9 102 23 110 30 8 7 38 18 67 24
28 6 89 26 135 45 46 18 99 39 119 45 59 19 247 136 277 172 15 19 42 48 60
66 17 17 32 36 32 43 0 20 -40 -10 -129 -95 -93 -89 -116 -103 -272 -166 -226
-90 -416 -145 -553 -158 -45 -4 -88 -11 -96 -14 -23 -11 -75 26 -94 67 -28 58
-15 69 111 90 253 42 378 74 360 92 -3 3 -56 -6 -119 -19 -149 -33 -208 -41
-208 -28 0 6 28 34 63 62 88 73 197 177 197 189 0 6 9 10 20 10 11 0 23 6 26
14 3 8 18 19 33 24 15 6 58 28 95 51 72 44 99 48 158 27 31 -11 39 -11 49 0
15 18 9 25 -54 59 l-55 29 -33 -25 c-39 -29 -107 -69 -180 -105 -37 -19 -54
-23 -62 -15 -14 14 -47 14 -47 0 0 -6 9 -13 20 -16 11 -3 20 -8 20 -12 0 -11
-62 -45 -95 -53 -16 -4 -109 -28 -205 -53 -147 -38 -185 -45 -239 -41 -60 5
-66 4 -98 -24 -35 -31 -83 -40 -83 -16 0 16 110 66 145 66 14 0 29 9 35 21 6
11 17 18 23 16 7 -2 68 23 136 55 68 32 129 58 136 58 12 0 226 104 275 134
14 9 42 22 63 30 39 16 57 40 40 57 -6 6 -41 -10 -94 -42 -92 -57 -263 -139
-287 -139 -8 0 -23 -6 -31 -13 -9 -7 -36 -21 -61 -31 -25 -10 -76 -31 -115
-46 -144 -57 -261 -114 -290 -142 -33 -31 -64 -39 -140 -36 -27 0 -90 0 -140
-1 -49 -1 -148 3 -219 8 -72 5 -132 9 -135 8 -3 0 -22 2 -42 6 -20 4 -48 3
-61 -2 -19 -7 -29 -6 -39 5 -12 11 -22 11 -54 2 -44 -12 -399 -6 -690 12 -93
5 -298 17 -455 26 -279 15 -463 38 -550 69 -23 8 -54 15 -69 15 -15 0 -52 9
-84 20 -31 11 -66 20 -77 20 -29 0 -25 31 9 64 l29 27 97 -10 c54 -6 102 -14
106 -17 5 -3 62 -9 125 -14 142 -11 272 -37 299 -60 36 -31 63 -40 119 -40 54
0 58 2 122 60 43 39 100 77 163 108 90 44 98 50 122 98 16 33 24 63 22 81 -3
20 2 34 17 48 21 19 119 55 151 55 28 0 109 51 133 83 69 94 175 372 176 460
0 10 14 49 30 87 16 38 30 86 30 107 0 21 12 63 26 93 35 75 81 195 95 252 16
59 0 160 -31 193 -25 27 -144 59 -275 75 -55 6 -227 15 -383 20 l-282 7 -24
26 c-13 14 -40 29 -60 32 -20 4 -39 11 -42 17 -3 5 16 28 42 51 44 39 53 42
117 47 56 4 72 9 81 25 6 11 23 35 39 53 32 39 33 46 8 71 -16 16 -29 18 -79
14 -52 -5 -61 -3 -80 17 -18 19 -27 22 -62 16 -37 -6 -44 -4 -62 19 -21 27
-174 105 -207 105 -11 0 -34 13 -51 30 -35 35 -87 63 -100 55 -4 -3 -23 3 -42
14 -18 11 -62 25 -98 32 -36 7 -97 25 -137 41 -80 32 -102 33 -256 16 -123
-14 -117 -16 -141 64 -8 26 -28 67 -44 90 -34 51 -86 157 -87 178 0 29 -40 22
-78 -14 -20 -19 -37 -39 -37 -45 0 -6 -13 -25 -29 -43 -60 -70 -71 -131 -42
-230 22 -75 23 -73 -58 -84 -48 -6 -50 -5 -65 25 -9 17 -46 67 -82 111 -63 78
-103 148 -104 181 0 9 -9 24 -20 34 -20 18 -21 18 -47 -7 -21 -22 -27 -38 -30
-88 -3 -63 -19 -105 -59 -152 -12 -15 -28 -54 -34 -85 -7 -32 -25 -87 -41
-122 -16 -35 -29 -71 -29 -81 0 -9 -20 -31 -45 -49 -25 -18 -57 -49 -72 -69
-15 -20 -42 -53 -61 -72 -19 -19 -45 -57 -59 -85 -31 -61 -85 -120 -135 -146
-60 -31 -164 -26 -433 21 -111 20 -204 41 -455 105 -218 55 -322 72 -615 96
-60 5 -146 14 -190 19 -44 5 -179 12 -300 15 -121 3 -240 10 -265 17 -25 6
-130 12 -235 13 -104 1 -217 7 -250 13 -144 28 -305 44 -520 53 -256 12 -356
21 -315 32 14 3 57 5 95 4 106 -3 191 12 276 49 43 19 81 34 86 34 14 0 203
118 250 156 49 40 112 152 142 251 47 157 57 314 33 513 -16 134 -35 181 -101
254 -70 76 -113 132 -134 172 -18 35 -86 100 -139 132 -48 30 -265 103 -283
96 -8 -3 -60 1 -117 10 -57 9 -116 16 -133 16 -16 1 -73 3 -125 5 -52 2 -105
0 -116 -5z m345 -291 c36 -6 80 -13 98 -15 19 -3 69 -32 122 -72 77 -57 93
-75 114 -122 14 -30 28 -66 32 -80 4 -14 15 -34 25 -45 9 -11 27 -68 40 -127
18 -85 22 -127 18 -205 -5 -111 -26 -169 -84 -239 -45 -56 -174 -140 -243
-161 -72 -20 -177 -14 -222 15 -68 43 -140 173 -147 264 -2 32 -11 63 -18 69
-38 31 5 110 83 154 55 30 58 30 135 4 58 -19 64 -19 103 -4 70 26 114 93 118
177 1 34 -4 44 -33 69 -19 16 -44 29 -55 29 -11 0 -39 9 -63 20 -38 17 -52 18
-110 10 -76 -11 -154 -37 -209 -71 -97 -59 -273 -247 -273 -291 0 -8 -8 -30
-19 -51 -27 -54 -35 -137 -17 -180 11 -27 12 -44 4 -74 -29 -108 -22 -143 44
-232 33 -45 65 -72 151 -125 65 -41 133 -75 166 -83 108 -28 86 -51 -31 -34
-40 6 -158 18 -263 26 -219 17 -250 21 -480 70 -93 20 -217 42 -275 49 -58 7
-119 20 -136 29 -17 9 -57 45 -91 80 -49 52 -63 76 -77 127 -24 85 -14 210 19
255 13 16 30 53 38 81 25 84 72 147 176 238 54 47 112 93 129 103 17 10 59 38
94 62 74 53 173 110 280 162 42 21 79 43 83 49 3 5 18 10 33 10 15 0 38 7 51
16 12 9 44 18 69 20 26 2 112 8 191 14 79 5 147 12 149 15 10 9 214 5 281 -6z
m4649 -922 c23 -40 42 -78 42 -85 0 -7 9 -29 20 -49 33 -63 29 -70 -47 -77
-142 -14 -146 -14 -161 18 -8 16 -19 59 -25 97 -14 92 2 130 65 152 24 9 48
16 54 16 6 1 29 -32 52 -72z m-486 -198 c111 -63 190 -124 223 -174 17 -24 33
-45 37 -45 4 0 6 26 5 58 -2 54 -1 57 23 60 14 1 54 9 90 17 124 27 341 48
460 43 99 -3 122 -8 165 -30 28 -14 83 -33 123 -43 83 -20 135 -43 204 -90 26
-18 71 -41 100 -51 117 -38 183 -93 207 -175 11 -36 10 -43 -5 -60 -28 -31
-48 -31 -151 -3 -54 15 -111 26 -128 26 -41 -1 -75 23 -75 53 0 36 31 48 121
43 78 -3 102 4 53 16 -20 5 -24 11 -19 28 7 20 5 20 -61 15 -38 -3 -80 -8 -94
-12 -18 -4 -39 3 -80 29 -85 55 -120 69 -182 74 -76 6 -74 -10 2 -25 44 -8 74
-22 117 -55 54 -41 58 -47 61 -90 2 -37 -1 -51 -19 -69 -19 -19 -29 -21 -74
-15 -39 4 -56 2 -64 -8 -10 -12 -8 -17 8 -25 31 -17 126 -14 142 5 7 8 25 22
41 30 27 14 33 13 90 -15 33 -17 75 -33 94 -37 21 -4 57 -27 93 -59 49 -44 76
-58 154 -84 60 -20 104 -30 120 -26 14 4 37 0 53 -8 21 -11 84 -16 234 -21
113 -4 221 -6 240 -6 19 0 66 -4 103 -11 71 -11 90 -27 67 -54 -7 -8 -15 -44
-18 -80 -4 -61 -3 -68 31 -123 52 -84 64 -179 17 -137 -10 9 -47 26 -82 38
-59 21 -64 25 -88 74 -33 71 -55 71 -47 2 9 -75 27 -95 99 -117 81 -23 97 -49
74 -120 -9 -26 -20 -79 -25 -118 -5 -39 -13 -80 -19 -90 -13 -26 -99 -272
-106 -306 -7 -29 -90 -95 -114 -90 -8 2 -21 -3 -30 -11 -29 -25 -143 -78 -160
-74 -10 2 13 18 58 41 85 43 86 44 77 52 -3 4 -37 -9 -74 -29 -38 -19 -93 -42
-123 -50 -30 -8 -81 -25 -112 -36 -32 -12 -82 -21 -112 -21 -54 0 -80 12 -50
24 30 12 3 28 -37 21 -34 -6 -38 -4 -33 10 6 15 -5 16 -107 14 -87 -1 -123 2
-151 15 -21 9 -46 16 -57 16 -11 0 -50 21 -87 46 -37 25 -79 48 -93 50 -60 9
-66 9 -66 -6 0 -27 306 -160 369 -160 29 0 44 -18 23 -26 -29 -11 -220 17
-359 52 -272 69 -328 75 -393 44 -54 -26 -86 -90 -52 -103 8 -3 67 -1 133 4
65 6 130 7 144 3 14 -3 54 -8 90 -10 164 -9 228 -24 333 -78 56 -29 128 -69
160 -88 73 -46 183 -74 229 -60 18 6 86 12 151 14 95 2 119 0 127 -12 13 -20
-7 -40 -40 -40 -16 0 -49 -9 -75 -20 -26 -11 -58 -20 -73 -20 -19 0 -43 -18
-92 -69 -37 -39 -79 -73 -93 -77 -22 -5 -49 6 -135 54 -110 62 -148 75 -240
86 -30 4 -76 16 -103 27 -46 17 -103 29 -226 46 -49 6 -53 14 -20 36 41 27 8
30 -50 4 -72 -32 -170 -43 -243 -28 -72 16 -157 67 -197 120 -44 57 -43 71 6
71 22 0 43 5 46 10 4 6 -13 10 -44 10 -28 0 -51 5 -51 10 0 6 6 10 13 10 19 0
111 60 103 67 -3 4 -32 -7 -63 -23 -76 -38 -177 -44 -253 -14 -28 11 -59 20
-70 20 -28 0 -49 37 -43 74 7 43 -19 67 -46 42 -22 -20 -30 -12 -55 48 -12 30
-19 37 -28 28 -9 -9 -8 -18 1 -38 8 -17 9 -30 2 -37 -14 -14 -118 22 -165 58
-38 29 -41 35 -52 105 -7 41 -13 106 -13 143 -1 97 -23 84 -36 -21 -6 -44 -13
-83 -16 -86 -3 -3 -16 2 -28 11 -34 23 -61 90 -61 151 0 46 3 55 20 59 24 6
26 19 4 27 -17 6 -16 43 2 106 7 22 6 24 -9 12 -9 -8 -21 -29 -27 -48 -13 -40
-47 -45 -43 -6 2 12 -8 37 -21 56 -35 52 -43 143 -17 195 12 22 25 42 31 46
11 7 14 45 4 45 -3 0 -19 -11 -36 -25 -36 -31 -44 -31 -52 -2 -12 46 -7 67 20
77 23 9 26 14 20 42 -3 17 -1 48 4 69 7 26 7 45 1 57 -7 14 -3 29 20 64 25 38
29 50 19 67 -17 32 29 110 113 194 40 40 80 83 90 97 l18 25 -5 -39 c-4 -28 1
-51 19 -86 22 -44 30 -50 94 -75 50 -19 84 -25 120 -23 70 4 60 23 -12 24 -61
0 -93 17 -130 65 -14 20 -19 45 -20 115 -1 78 2 95 25 139 14 28 35 82 48 120
29 88 37 105 54 105 8 0 47 -19 88 -41z m-3182 -524 c10 -12 7 -15 -14 -21
-29 -7 -46 1 -46 22 0 19 44 18 60 -1z m150 -75 c-20 -13 -40 -13 -40 0 0 6
12 10 28 10 21 0 24 -2 12 -10z m1585 -40 c3 -5 -1 -10 -9 -10 -8 0 -18 5 -21
10 -3 6 1 10 9 10 8 0 18 -4 21 -10z m855 -24 c0 -3 -4 -8 -10 -11 -5 -3 -10
-1 -10 4 0 6 5 11 10 11 6 0 10 -2 10 -4z m-50 -62 c0 -8 -5 -12 -10 -9 -6 4
-8 11 -5 16 9 14 15 11 15 -7z m3210 -51 c-1 -5 -7 -19 -15 -33 -17 -30 -19
-113 -4 -141 22 -43 1 -41 -24 2 -23 39 -26 52 -20 99 3 30 10 61 16 68 10 13
47 17 47 5z m-3241 -36 c5 -12 7 -71 5 -132 -2 -60 -4 -114 -4 -119 0 -5 -3
-7 -6 -4 -10 10 -30 195 -26 237 5 45 18 53 31 18z m3271 13 c0 -5 -2 -10 -4
-10 -3 0 -8 5 -11 10 -3 6 -1 10 4 10 6 0 11 -4 11 -10z m-3108 -531 c33 -47
38 -61 38 -111 0 -31 5 -69 10 -84 6 -15 8 -29 6 -32 -11 -10 -36 22 -76 94
-39 72 -59 147 -46 179 9 25 27 13 68 -46z m3048 28 c0 -18 -39 -124 -41 -112
-5 34 18 125 31 125 6 0 10 -6 10 -13z m-85 -290 c-20 -78 -48 -169 -62 -202
-30 -71 -73 -134 -91 -135 -15 0 -16 -3 19 65 15 28 38 94 53 147 14 54 41
132 60 175 19 43 37 87 41 98 5 13 9 16 12 7 3 -7 -12 -77 -32 -155z m-2810
-97 c31 -39 55 -76 53 -82 -4 -11 -128 129 -128 145 0 20 23 0 75 -63z m45
-151 c0 -5 -6 -9 -14 -9 -15 0 -26 21 -26 48 1 14 5 12 20 -7 11 -13 20 -27
20 -32z m227 -14 c32 -9 57 -24 67 -40 31 -48 14 -47 -81 2 -102 52 -94 70 14
38z m47 -112 c74 -37 93 -50 84 -60 -16 -19 -40 -16 -94 14 -72 39 -127 93
-94 93 5 0 52 -21 104 -47z m-154 17 c28 -21 22 -37 -8 -21 -20 10 -38 41 -24
41 4 0 18 -9 32 -20z m435 -82 c9 -9 17 -88 9 -88 -17 0 -104 82 -98 92 6 9
80 6 89 -4z m107 -15 c4 -2 16 -23 26 -46 10 -23 26 -48 35 -56 10 -7 17 -19
17 -27 0 -10 -8 -10 -42 2 -70 24 -108 66 -108 117 0 27 2 28 33 22 17 -4 35
-9 39 -12z m-262 -13 c0 -5 -7 -10 -15 -10 -8 0 -15 5 -15 10 0 6 7 10 15 10
8 0 15 -4 15 -10z m-60 -22 c36 -26 39 -42 8 -32 -40 12 -77 54 -48 54 6 0 24
-10 40 -22z m1916 -62 c-23 -36 -50 -35 -41 1 11 44 25 57 43 39 13 -13 13
-18 -2 -40z m82 30 c4 -20 -25 -56 -45 -56 -17 0 -17 14 3 51 16 32 37 34 42
5z m-428 -27 c-9 -16 -14 -17 -35 -7 -44 20 -30 52 16 36 24 -8 27 -13 19 -29z
m275 30 c4 -5 4 -21 1 -35 -6 -21 -12 -25 -39 -22 -35 3 -47 28 -27 53 14 17
56 20 65 4z m-120 -9 c10 -16 -22 -59 -48 -65 -13 -4 -36 -1 -51 5 l-29 11 28
29 c30 31 87 42 100 20z m-1376 -114 c53 -25 65 -46 26 -46 -31 0 -61 14 -92
43 -48 43 -21 45 66 3z m501 -23 c13 -14 9 -15 -40 -9 -62 8 -71 13 -50 27 19
12 71 1 90 -18z m-272 -4 c67 -11 172 -57 172 -75 0 -8 -10 -20 -23 -29 -21
-13 -30 -12 -102 10 -44 13 -102 38 -128 55 -26 16 -52 30 -57 30 -6 0 -10 6
-10 14 0 15 43 13 148 -5z m462 -28 l55 -17 -36 -7 c-47 -9 -139 10 -139 29 0
19 51 17 120 -5z m-113 -207 c8 -21 -8 -34 -35 -28 -32 9 -30 44 3 44 14 0 28
-7 32 -16z m44 -27 c-13 -13 -26 -3 -16 12 3 6 11 8 17 5 6 -4 6 -10 -1 -17z
m2769 -126 c0 -22 -35 -69 -45 -60 -9 9 22 79 34 79 6 0 11 -9 11 -19z m-859
-23 c43 1 81 -3 84 -8 7 -12 -183 -14 -212 -3 -16 6 -15 8 7 13 14 4 29 5 34
2 4 -2 44 -4 87 -4z m-4241 -18 c0 -5 -9 -14 -20 -20 -15 -8 -20 -8 -20 3 0 8
3 17 7 20 10 10 33 8 33 -3z m4400 6 c0 -3 -4 -8 -10 -11 -5 -3 -10 -1 -10 4
0 6 5 11 10 11 6 0 10 -2 10 -4z m-4607 -203 c-14 -40 -66 -92 -117 -119 -30
-16 -58 -25 -63 -20 -4 5 1 13 11 20 11 6 50 39 88 74 68 63 93 76 81 45z
m-3195 -279 c34 -9 29 -36 -5 -28 -40 10 -73 23 -73 29 0 7 50 6 78 -1z m-198
-18 c0 -14 -48 -32 -58 -22 -2 3 1 12 8 21 16 19 50 20 50 1z m126 -17 c15
-25 -64 -40 -96 -19 -13 9 -13 11 0 20 20 13 87 13 96 -1z m123 -28 c24 -15
-25 -33 -70 -26 -39 7 -50 19 -26 28 20 9 81 7 96 -2z m-219 -11 c8 -5 12 -12
8 -15 -8 -8 -58 5 -58 16 0 12 31 11 50 -1z m-160 -40 c-16 -23 -18 -30 -7
-30 8 0 20 7 27 15 14 16 75 21 85 6 3 -5 31 -7 62 -4 49 5 56 4 50 -10 -5
-14 2 -16 58 -14 70 2 82 -7 43 -36 -26 -19 -78 -25 -117 -12 -18 5 -20 10
-10 21 16 19 -9 19 -35 -1 -30 -22 -66 -19 -66 5 0 24 -13 26 -30 5 -8 -10
-31 -15 -71 -15 -71 0 -77 16 -27 67 41 43 68 45 38 3z m495 15 c0 -5 -20 -11
-44 -13 -26 -2 -50 -10 -56 -19 -10 -13 -15 -14 -36 -2 l-24 14 25 3 c14 2 29
10 33 18 10 17 102 16 102 -1z m-215 -5 c0 -5 -11 -10 -24 -10 -14 0 -28 5
-31 10 -4 6 7 10 24 10 17 0 31 -4 31 -10z m284 -26 c26 -10 18 -24 -13 -24
-30 0 -46 12 -34 24 8 8 27 8 47 0z m4597 -75 c7 -14 7 -25 1 -31 -7 -7 3 -24
30 -51 22 -23 49 -59 60 -82 23 -45 76 -118 156 -213 28 -34 52 -67 52 -72 0
-5 26 -28 58 -51 52 -39 76 -59 198 -168 79 -71 161 -131 205 -149 45 -19 162
-110 187 -144 16 -21 71 -23 187 -7 41 5 84 7 95 4 21 -7 59 -96 67 -160 3
-22 12 -48 21 -57 13 -16 13 -18 -1 -23 -8 -4 -32 -5 -52 -3 -35 3 -39 7 -50
43 -16 55 -47 113 -52 97 -3 -7 2 -33 11 -59 9 -26 16 -52 16 -58 0 -21 -50
-35 -124 -35 -87 0 -101 10 -91 68 8 51 -2 58 -100 66 -52 5 -93 15 -117 28
-40 23 -60 19 -38 -7 24 -29 54 -39 130 -44 l74 -6 14 -37 c26 -67 19 -71
-121 -63 -110 6 -124 9 -146 30 -23 22 -24 26 -11 52 8 15 16 31 18 36 2 4 -3
7 -11 7 -9 0 -33 16 -54 36 -38 36 -131 74 -182 74 -16 0 -41 18 -72 51 -40
41 -49 46 -49 30 0 -22 -19 -27 -48 -12 -9 5 -40 19 -69 32 -28 13 -54 30 -57
39 -3 8 -11 23 -18 32 -19 26 -4 32 32 13 18 -9 37 -30 43 -46 14 -37 33 -38
32 -1 0 21 -11 34 -55 64 -56 37 -67 56 -69 116 -1 17 -6 32 -12 32 -7 0 -9
-10 -7 -25 7 -32 -8 -42 -31 -21 -27 24 -37 19 -14 -6 11 -13 23 -31 26 -41 6
-17 6 -17 -17 0 -36 26 -62 73 -46 83 9 6 9 13 1 28 -6 11 -11 30 -11 42 0 19
4 21 25 16 45 -11 75 -25 75 -35 0 -5 27 -30 60 -55 33 -25 60 -43 60 -40 0 4
-5 24 -11 45 -10 30 -9 42 1 54 11 13 11 19 -3 32 -15 15 -18 15 -34 1 -17
-15 -20 -15 -47 7 -25 20 -27 26 -17 39 10 11 10 20 0 37 -11 21 -12 21 -22 3
-5 -10 -11 -20 -13 -22 -1 -2 -12 1 -23 8 -29 15 -26 45 6 68 l27 20 -39 -2
c-36 -1 -39 1 -47 33 -12 44 3 78 37 87 25 6 30 29 6 29 -6 0 -16 7 -21 14 -7
12 -13 8 -27 -18 -26 -48 -73 -101 -89 -101 -22 0 -29 49 -10 80 20 35 21 46
1 30 -13 -11 -15 -7 -15 28 0 52 14 90 48 125 27 28 21 34 -22 17 -23 -8 -26
-7 -26 11 l0 20 -29 -20 c-31 -22 -61 -28 -61 -11 0 6 8 14 18 17 9 4 48 26
86 49 74 46 93 46 117 3z m-4688 14 c41 -11 -1 -44 -62 -47 -23 -1 -45 -10
-59 -24 -16 -16 -29 -21 -47 -16 -21 5 -25 3 -25 -15 0 -15 -10 -23 -40 -31
-22 -6 -45 -8 -50 -5 -6 3 -10 -3 -10 -13 0 -31 -46 -56 -84 -45 -40 11 -40
34 2 52 17 8 32 20 32 26 0 17 45 35 86 35 31 0 35 2 29 21 -7 20 -4 21 39 18
40 -4 45 -2 40 14 -11 35 69 52 149 30z m-476 -31 c-25 -27 -21 -31 18 -25 40
6 42 3 18 -33 -14 -22 -15 -31 -5 -58 11 -27 10 -33 -5 -44 -24 -17 -35 -1
-58 83 -20 75 -16 95 21 95 26 0 26 -1 11 -18z m83 8 c0 -5 -6 -10 -14 -10 -8
0 -18 5 -21 10 -3 6 3 10 14 10 12 0 21 -4 21 -10z m2809 1 c17 -11 0 -16 -84
-25 -27 -3 -81 -11 -120 -16 -65 -11 -179 -8 -285 7 -44 6 -44 6 -15 15 17 4
44 8 60 8 17 0 84 4 150 8 169 12 278 13 294 3z m-2692 -7 c30 -8 19 -24 -17
-24 -20 0 -35 -9 -49 -29 -19 -27 -76 -47 -86 -31 -8 13 26 50 47 50 11 0 22
8 25 20 6 21 35 26 80 14z m354 -14 c24 -14 25 -40 0 -40 -69 0 -102 27 -50
41 13 4 25 7 27 8 2 1 12 -4 23 -9z m-12 -63 c24 -20 30 -53 17 -91 -7 -19
-15 -39 -19 -42 -3 -4 -35 8 -70 25 -69 34 -81 34 -136 -7 -32 -23 -37 -24
-78 -14 -52 14 -63 15 -63 3 0 -5 11 -12 25 -15 49 -12 26 -26 -32 -20 -41 5
-54 4 -49 -4 4 -7 14 -12 22 -12 18 0 18 -24 1 -39 -8 -6 -28 -14 -45 -17 -17
-4 -37 -13 -43 -20 -18 -21 -39 -17 -39 9 0 30 9 41 48 61 25 13 32 22 27 37
-5 16 -2 19 22 19 17 0 33 8 40 20 17 26 71 53 91 45 34 -14 82 -23 82 -15 0
5 -17 14 -37 21 -34 11 -35 13 -18 25 37 27 127 7 167 -36 22 -24 88 -29 69
-6 -7 8 -37 24 -69 37 -90 35 -97 40 -81 50 18 12 149 1 168 -14z m4448 -59
c-38 -71 -62 -148 -54 -178 3 -11 2 -20 -3 -20 -23 0 -26 112 -4 166 18 45 61
94 82 94 10 0 3 -19 -21 -62z m-218 -20 c10 -24 29 -68 42 -98 13 -30 34 -71
46 -90 12 -19 29 -55 38 -79 9 -27 31 -58 55 -78 22 -19 61 -67 86 -106 47
-73 152 -178 279 -280 74 -60 124 -80 275 -112 64 -13 83 -22 122 -58 56 -51
69 -74 57 -104 -10 -27 -18 -28 -83 -8 -27 8 -75 15 -106 15 -32 0 -77 7 -100
15 -29 10 -84 15 -169 16 -69 0 -180 4 -245 8 -125 7 -176 5 -176 -10 0 -5 18
-9 41 -9 24 0 38 -4 34 -10 -3 -5 -30 -10 -59 -10 -47 0 -56 3 -71 26 -9 14
-19 42 -22 62 -2 20 -24 96 -48 167 l-44 130 12 88 c17 132 -1 207 -82 336
-24 38 -43 82 -47 110 -3 25 -15 60 -25 77 -10 17 -16 34 -12 37 3 4 46 7 95
7 l88 0 19 -42z m71 0 c0 -19 -2 -20 -10 -8 -13 19 -13 30 0 30 6 0 10 -10 10
-22z m157 -78 c-10 -61 -27 -82 -27 -32 0 38 19 104 29 98 4 -3 3 -32 -2 -66z
m-104 2 c-5 -43 -8 -50 -19 -41 -19 15 -18 44 2 75 9 13 18 23 19 22 2 -2 0
-27 -2 -56z m-4817 33 c18 -14 18 -15 -11 -39 -16 -14 -33 -25 -36 -26 -4 0
-12 14 -19 31 -11 26 -11 32 1 40 21 13 43 11 65 -6z m364 -5 c7 -13 21 -20
40 -20 20 0 30 -5 30 -15 0 -24 -27 -29 -55 -11 -31 21 -93 21 -116 0 -12 -11
-27 -14 -44 -10 -30 8 -33 26 -4 26 12 0 34 11 51 25 36 31 83 33 98 5z m-172
-76 c12 -8 27 -12 33 -8 6 3 29 1 50 -6 48 -16 49 -41 1 -51 -18 -4 -41 -14
-51 -23 -19 -18 -120 -23 -136 -7 -13 12 -65 2 -65 -13 -1 -17 -48 -71 -56
-63 -4 4 -7 21 -7 39 0 38 29 64 89 80 25 7 40 16 37 23 -4 11 50 44 72 45 6
0 21 -7 33 -16z m178 2 c18 -14 18 -15 1 -21 -18 -7 -73 10 -83 26 -9 15 61
10 82 -5z m24 -76 c0 -15 -7 -20 -27 -20 -16 0 -34 4 -42 9 -22 14 -3 31 35
31 27 0 34 -4 34 -20z m4659 -32 c16 -70 1 -84 -38 -38 -27 33 -28 37 -15 63
22 41 39 33 53 -25z m-115 26 c9 -24 7 -64 -3 -64 -13 0 -17 8 -26 48 -5 25
-3 32 8 32 8 0 18 -7 21 -16z m-4601 -33 c67 -26 -12 -44 -83 -19 -31 10 -32
12 -14 25 19 15 47 13 97 -6z m-198 -21 c3 -5 18 -7 33 -4 34 7 85 -12 79 -29
-2 -6 -12 -14 -23 -15 -10 -2 -29 -14 -42 -25 -18 -17 -35 -22 -70 -20 -35 1
-43 -1 -29 -8 26 -15 22 -23 -30 -56 -27 -17 -59 -43 -72 -57 -27 -28 -51 -34
-51 -12 0 7 9 34 20 59 15 32 27 47 47 52 15 3 45 22 66 42 34 31 44 34 76 29
l36 -5 -25 19 c-14 11 -31 17 -38 15 -8 -3 -22 -5 -32 -5 -10 0 -21 -8 -25
-19 -6 -19 -81 -59 -91 -48 -4 4 13 26 37 51 38 37 50 44 86 45 23 1 45 -3 48
-9z m4888 -86 c-7 -20 -27 -17 -48 6 -15 16 -16 22 -5 35 12 14 15 13 36 -6
12 -12 20 -27 17 -35z m-4679 40 c30 -12 18 -34 -18 -34 -38 0 -57 17 -35 31
17 10 32 11 53 3z m-28 -59 c6 -8 19 -15 28 -15 22 0 20 -13 -8 -43 -26 -28
-60 -41 -97 -35 -54 8 -11 48 51 48 21 0 30 5 30 16 0 14 -7 15 -37 10 -21 -3
-46 -6 -55 -6 -10 0 -18 -7 -18 -15 0 -23 -43 -38 -87 -30 l-38 7 28 24 c16
13 35 24 43 24 9 0 28 9 42 21 21 16 35 19 67 15 22 -4 45 -13 51 -21z m4686
-47 c-9 -9 -15 -9 -24 0 -9 9 -7 12 12 12 19 0 21 -3 12 -12z m-4866 -53 c5
-11 11 -12 24 -5 20 11 50 4 50 -11 0 -5 -11 -15 -25 -21 -19 -9 -31 -8 -48 1
-15 8 -31 9 -47 3 -27 -10 -90 -5 -90 8 0 33 125 56 136 25z m242 -2 c2 -9 -7
-13 -27 -13 -30 0 -39 9 -24 24 11 10 46 3 51 -11z m12 -43 c30 -16 10 -30
-43 -30 -25 0 -43 -7 -54 -20 -18 -21 -56 -25 -126 -14 -46 8 -43 26 6 38 20
5 37 15 37 22 0 7 8 15 18 18 29 8 137 -1 162 -14z m-340 -25 c0 -12 5 -11 29
3 52 29 52 -5 1 -46 l-29 -23 -40 20 c-47 24 -59 40 -40 52 23 15 79 11 79 -6z
m380 -15 c0 -5 -5 -10 -11 -10 -5 0 -7 5 -4 10 3 6 8 10 11 10 2 0 4 -4 4 -10z
m-14 -34 c31 -24 6 -39 -45 -27 -48 11 -56 15 -46 30 9 16 68 13 91 -3z m4722
-15 c3 -8 -1 -12 -9 -9 -7 2 -15 10 -17 17 -3 8 1 12 9 9 7 -2 15 -10 17 -17z
m-4969 3 c36 -7 39 -23 11 -49 -20 -18 -22 -18 -65 3 -79 38 -46 66 54 46z
m315 -23 c3 -5 0 -11 -8 -14 -15 -6 -26 1 -26 15 0 11 27 10 34 -1z m-136 -18
c6 -19 -63 -16 -79 3 -11 14 -8 15 31 12 24 -2 45 -9 48 -15z m77 -23 c-3 -5
-15 -10 -26 -10 -10 0 -19 5 -19 10 0 6 12 10 26 10 14 0 23 -4 19 -10z m63
-25 c-3 -3 -13 -2 -22 1 -14 5 -15 9 -4 15 13 8 36 -6 26 -16z m-261 0 c3 -9
3 -18 0 -21 -9 -9 -48 16 -42 27 9 14 35 11 42 -6z m330 -21 c-9 -9 -28 6 -21
18 4 6 10 6 17 -1 6 -6 8 -13 4 -17z m-119 4 c-6 -18 -28 -21 -28 -4 0 9 7 16
16 16 9 0 14 -5 12 -12z m-128 -17 c0 -5 -7 -12 -16 -15 -9 -3 -12 -11 -8 -18
5 -10 4 -10 -6 -1 -16 14 -6 43 15 43 8 0 15 -4 15 -9z m205 0 c3 -6 -3 -15
-14 -20 -11 -6 -21 -21 -23 -33 -3 -21 -5 -20 -20 9 -15 31 -15 34 0 43 22 12
49 13 57 1z m45 -31 c0 -5 -9 -10 -20 -10 -11 0 -20 5 -20 10 0 6 9 10 20 10
11 0 20 -4 20 -10z m-140 -15 c11 -13 7 -15 -30 -15 -37 0 -41 2 -30 15 7 8
20 15 30 15 10 0 23 -7 30 -15z m198 -6 c-2 -6 -26 -20 -53 -30 -28 -11 -63
-27 -79 -35 -16 -8 -31 -13 -33 -10 -11 11 13 30 71 56 64 30 100 37 94 19z
m4802 -9 c0 -5 -5 -10 -11 -10 -5 0 -7 5 -4 10 3 6 8 10 11 10 2 0 4 -4 4 -10z
m-4750 -7 c-1 -11 -149 -77 -156 -70 -7 6 123 76 144 77 6 0 12 -3 12 -7z m60
-21 c0 -5 -26 -19 -57 -32 -32 -13 -80 -36 -106 -52 -57 -34 -61 -34 -47 -7 6
11 48 38 93 60 78 38 117 48 117 31z m109 -21 c19 -12 -24 -40 -81 -53 -24 -5
-50 -15 -58 -23 -18 -16 -64 -24 -68 -11 -4 11 152 96 176 96 10 0 23 -4 31
-9z m76 -21 c-6 -10 -78 -50 -90 -50 -3 0 -5 6 -5 13 0 15 55 45 83 46 10 1
15 -4 12 -9z m55 -51 c29 -31 38 -67 24 -103 -10 -25 -61 -20 -75 7 -7 12 -23
35 -35 50 -30 36 -30 39 4 59 38 24 48 22 82 -13z m102 -16 c22 -20 23 -42 2
-71 -24 -34 -32 -27 -36 33 -3 58 4 66 34 38z m-302 2 c0 -6 -57 -35 -70 -35
-18 0 -11 17 13 28 23 11 57 16 57 7z m65 -34 c-4 -14 1 -20 20 -25 39 -10 33
-43 -11 -61 -42 -17 -90 -20 -99 -5 -3 5 10 20 30 31 43 26 41 32 -5 19 -58
-17 -53 8 8 40 48 25 65 25 57 1z m-265 -30 c0 -14 -51 -52 -61 -45 -18 11 -8
33 19 42 35 14 42 14 42 3z m70 0 c0 -5 -7 -14 -15 -21 -8 -7 -15 -19 -15 -26
0 -8 -5 -14 -11 -14 -5 0 -7 5 -4 10 4 6 1 17 -5 25 -10 12 -8 17 11 24 31 13
39 13 39 2z m4300 -11 c0 -5 -2 -10 -4 -10 -3 0 -8 5 -11 10 -3 6 -1 10 4 10
6 0 11 -4 11 -10z m-4262 -48 c2 -7 -3 -12 -12 -12 -9 0 -16 7 -16 16 0 17 22
14 28 -4z m6659 -6 c0 0 4 -18 8 -38 7 -36 6 -37 -32 -47 -73 -19 -78 -18 -81
10 -4 37 49 93 80 84 13 -4 24 -8 25 -9z m-8401 -94 c29 -23 44 -54 44 -91 0
-58 -28 -47 -49 20 -6 20 -20 44 -31 54 -36 32 -2 48 36 17z m-75 -47 c29 -66
23 -80 -31 -80 -44 0 -44 0 -59 47 -17 56 -6 78 41 78 25 0 32 -6 49 -45z"/>
<path d="M6450 4816 c-5 -15 -10 -31 -10 -36 0 -5 -11 -44 -25 -86 -14 -42
-25 -83 -25 -91 0 -8 16 -31 35 -50 34 -34 34 -34 65 -18 24 12 30 21 24 33
-15 34 -15 87 0 107 19 26 24 20 35 -46 l9 -54 1 46 c2 67 16 74 91 49 89 -30
107 -20 32 18 -72 36 -142 83 -189 126 l-32 29 -11 -27z"/>
<path d="M7239 4526 c-30 -7 -64 -16 -75 -21 -10 -4 -56 -9 -100 -10 -75 -2
-86 -5 -143 -40 -71 -44 -91 -75 -91 -138 0 -51 19 -79 79 -122 40 -27 43 -28
135 -21 79 5 95 4 100 -9 4 -10 13 -14 28 -10 21 5 179 -45 203 -65 16 -14
232 -13 358 0 95 11 120 17 128 31 10 19 0 24 -60 31 -27 3 -42 28 -17 28 20
0 20 -1 -1 41 -9 18 -18 52 -19 75 -5 85 -36 98 -239 99 l-111 0 -94 -47 c-52
-26 -124 -64 -159 -83 -56 -31 -73 -35 -135 -35 -123 0 -179 49 -143 124 18
39 138 126 172 126 18 -1 16 -4 -10 -25 -34 -28 -31 -40 5 -22 38 19 180 64
225 72 57 9 75 15 75 26 0 12 -41 10 -111 -5z m314 -182 c4 -4 -5 -20 -18 -36
-28 -33 -49 -101 -41 -133 3 -12 17 -27 31 -33 14 -6 25 -18 25 -27 0 -12 -14
-15 -65 -15 -53 0 -83 7 -156 37 -50 21 -94 44 -97 52 -11 29 111 118 203 147
43 14 108 18 118 8z"/>
<path d="M7383 4533 c9 -2 23 -2 30 0 6 3 -1 5 -18 5 -16 0 -22 -2 -12 -5z"/>
<path d="M7728 4504 c-4 -3 5 -16 20 -29 30 -25 106 -42 99 -22 -8 25 -104 66
-119 51z"/>
<path d="M7890 4382 c0 -5 7 -15 15 -22 8 -7 15 -8 15 -2 0 5 -7 15 -15 22 -8
7 -15 8 -15 2z"/>
<path d="M7910 4282 c0 -5 7 -22 15 -39 30 -60 30 -140 0 -248 -15 -55 -33
-111 -40 -125 -40 -74 -57 -122 -48 -131 13 -13 46 18 37 33 -4 6 -1 14 6 18
13 8 33 58 77 190 20 60 24 88 20 136 -7 71 -37 166 -54 172 -7 2 -13 -1 -13
-6z"/>
<path d="M7320 4041 c0 -11 55 -31 84 -31 17 1 14 5 -14 20 -38 21 -70 26 -70
11z"/>
<path d="M7440 4000 c0 -5 23 -12 50 -16 28 -4 50 -8 50 -11 0 -2 -7 -15 -16
-28 -21 -32 -4 -32 26 0 33 35 83 49 157 42 34 -4 63 -3 63 2 0 12 -167 22
-194 12 -12 -5 -42 -5 -67 0 -58 11 -69 11 -69 -1z"/>
<path d="M7460 3890 c-8 -5 -11 -12 -8 -16 10 -9 38 3 38 16 0 12 -10 13 -30
0z"/>
<path d="M7355 3828 c-22 -11 -43 -26 -47 -33 -4 -7 -41 -27 -83 -45 -65 -28
-75 -36 -69 -53 4 -14 -2 -26 -22 -44 -27 -22 -27 -23 -6 -18 56 16 249 142
296 194 19 21 19 21 -5 21 -13 -1 -42 -10 -64 -22z"/>
<path d="M7065 3620 c-3 -5 1 -10 9 -10 8 0 18 5 21 10 3 6 -1 10 -9 10 -8 0
-18 -4 -21 -10z"/>
<path d="M7178 3623 c7 -3 16 -2 19 1 4 3 -2 6 -13 5 -11 0 -14 -3 -6 -6z"/>
<path d="M7095 3598 c-36 -20 -75 -61 -75 -80 0 -11 -13 -36 -29 -56 -33 -42
-65 -129 -50 -137 13 -9 29 3 29 21 0 18 40 57 93 91 54 34 38 42 -18 9 -25
-15 -45 -22 -45 -16 0 20 20 50 34 50 8 0 24 9 37 20 l24 19 -22 1 c-13 0 -23
4 -23 8 0 12 40 47 75 65 24 13 26 16 10 16 -11 0 -29 -5 -40 -11z"/>
<path d="M7923 3200 c-13 -5 -23 -14 -23 -19 0 -17 33 -21 56 -6 13 8 30 15
38 15 8 0 18 5 21 10 8 12 -61 12 -92 0z"/>
<path d="M7786 3191 c17 -17 64 -17 64 -1 0 6 -17 10 -37 10 -23 0 -33 -4 -27
-9z"/>
<path d="M8415 3136 l-40 -21 29 -3 c19 -2 36 3 48 16 28 28 10 32 -37 8z"/>
<path d="M7940 3120 c0 -5 11 -10 25 -10 14 0 25 5 25 10 0 6 -11 10 -25 10
-14 0 -25 -4 -25 -10z"/>
<path d="M8088 3123 c-56 -6 -46 -23 12 -23 38 0 50 4 50 15 0 8 -6 14 -12 13
-7 -1 -30 -3 -50 -5z"/>
<path d="M8160 3080 c-12 -8 -10 -10 8 -10 13 0 20 4 17 10 -7 12 -6 12 -25 0z"/>
<path d="M7010 3000 c0 -5 6 -10 14 -10 8 0 18 5 21 10 3 6 -3 10 -14 10 -12
0 -21 -4 -21 -10z"/>
<path d="M1635 1297 c-28 -11 -44 -25 -45 -37 0 -3 28 -3 62 -2 46 3 58 6 45
13 -9 6 -17 17 -17 24 0 17 -4 17 -45 2z"/>
<path d="M1740 920 c20 -13 43 -13 35 0 -3 6 -16 10 -28 10 -18 0 -19 -2 -7
-10z"/>
<path d="M1339 4520 c-19 -10 -50 -32 -68 -49 -18 -17 -37 -31 -42 -31 -5 0
-9 -11 -9 -25 0 -31 29 -34 37 -5 4 16 14 20 45 20 40 0 78 14 78 29 0 5 -12
12 -27 17 l-28 7 30 6 c21 4 31 13 33 29 4 26 -2 27 -49 2z"/>
<path d="M2921 4441 c-10 -7 -2 -11 30 -16 57 -8 174 -3 174 9 0 11 -186 18
-204 7z"/>
<path d="M4320 4380 c0 -5 5 -10 11 -10 5 0 7 5 4 10 -3 6 -8 10 -11 10 -2 0
-4 -4 -4 -10z"/>
<path d="M3580 4290 c0 -23 10 -26 28 -8 18 18 15 28 -8 28 -13 0 -20 -7 -20
-20z"/>
<path d="M3497 4229 c-21 -12 -24 -61 -3 -53 13 5 32 52 24 59 -2 2 -11 -1
-21 -6z"/>
<path d="M3922 4208 c-14 -14 -16 -38 -4 -38 14 0 43 36 35 43 -9 10 -17 9
-31 -5z"/>
<path d="M2775 4071 c-39 -18 -76 -52 -108 -101 -18 -26 -23 -85 -8 -94 5 -4
43 -9 84 -12 136 -12 267 51 267 129 0 35 -24 82 -45 91 -35 13 -150 5 -190
-13z m95 -116 c-7 -8 -20 -15 -29 -15 -12 1 -11 5 8 21 26 22 41 18 21 -6z"/>
<path d="M4005 4048 c-11 -6 -49 -34 -85 -62 -36 -29 -77 -57 -92 -64 -26 -11
-36 -31 -22 -45 7 -7 53 26 123 85 24 21 49 38 56 38 16 0 65 39 65 51 0 12
-20 11 -45 -3z"/>
<path d="M5098 3898 c-46 -12 -88 -59 -88 -99 0 -25 7 -32 52 -55 51 -26 51
-26 67 -6 9 11 34 25 56 31 86 23 146 81 125 120 -10 19 -19 21 -93 20 -45 -1
-99 -6 -119 -11z"/>
<path d="M2738 3832 c-21 -4 -58 -83 -58 -122 0 -24 5 -29 42 -38 23 -6 44 -9
46 -8 2 2 -11 14 -27 26 -37 26 -38 42 -6 99 28 48 28 49 3 43z"/>
<path d="M2839 3814 c-10 -12 -10 -25 -1 -62 21 -79 86 -115 137 -76 17 13 18
16 5 24 -8 5 -27 10 -42 10 -15 0 -30 4 -33 10 -8 13 21 66 40 73 30 12 16 28
-19 22 -19 -4 -43 -2 -54 4 -15 8 -23 7 -33 -5z"/>
<path d="M3908 3814 c-46 -25 -98 -101 -98 -145 0 -70 42 -61 46 11 3 50 36
104 74 120 30 13 41 30 18 30 -7 -1 -25 -7 -40 -16z"/>
<path d="M3070 3760 c-39 -39 -41 -113 -2 -118 16 -3 22 2 22 17 0 11 -4 23
-10 26 -20 12 -9 36 25 56 19 12 32 25 29 30 -9 16 -43 10 -64 -11z"/>
<path d="M5240 3763 c-48 -18 -71 -83 -30 -83 23 0 24 3 8 31 -9 15 -10 23 -2
26 13 4 51 33 44 32 -3 0 -12 -3 -20 -6z"/>
<path d="M2990 3575 c0 -8 5 -15 10 -15 6 0 10 7 10 15 0 8 -4 15 -10 15 -5 0
-10 -7 -10 -15z"/>
<path d="M12075 3344 c-22 -13 -49 -24 -60 -24 -31 -1 -59 -20 -147 -102 -63
-57 -103 -107 -168 -207 -81 -125 -87 -131 -129 -142 -59 -16 -97 -57 -155
-170 -65 -124 -118 -194 -171 -228 -55 -35 -208 -98 -257 -106 -36 -5 -56 -20
-45 -32 3 -3 28 2 55 10 27 7 62 12 78 10 19 -3 52 7 100 30 70 35 174 110
174 126 0 4 22 41 48 82 27 41 66 107 88 148 25 47 48 77 63 82 43 17 48 1 36
-113 -7 -58 -5 -71 14 -103 17 -29 19 -40 10 -51 -15 -18 -5 -18 29 0 19 10
48 12 100 9 71 -6 72 -6 72 -33 0 -56 -21 -137 -50 -193 -38 -72 -40 -120 -5
-143 16 -11 36 -14 55 -11 16 4 53 2 82 -3 175 -31 258 -43 292 -41 46 2 98
-16 93 -33 -2 -6 -19 -19 -38 -28 -42 -21 -210 -24 -428 -7 -135 11 -151 15
-213 46 -44 22 -68 40 -68 51 1 9 23 34 50 55 28 21 50 42 50 46 0 4 -20 3
-43 -3 -31 -7 -48 -18 -59 -36 -9 -15 -33 -36 -54 -46 -48 -24 -54 -41 -17
-50 15 -4 40 -20 55 -35 17 -19 37 -29 55 -29 15 0 41 -7 58 -16 30 -16 350
-36 510 -33 45 1 96 -6 142 -19 88 -25 89 -26 108 -62 13 -26 95 -90 114 -90
14 0 34 30 47 66 7 21 8 34 2 34 -6 0 -23 11 -40 25 -16 14 -38 25 -48 25 -11
0 -35 16 -54 36 l-35 36 -31 -18 c-27 -16 -32 -17 -40 -4 -13 21 -12 33 4 56
13 17 17 18 48 5 18 -8 49 -15 68 -16 19 -1 45 -2 57 -3 22 -2 57 -28 114 -85
28 -28 28 -29 13 -65 -8 -20 -23 -46 -33 -57 -21 -23 -51 -102 -51 -130 0 -11
7 -29 15 -39 23 -31 18 -42 -29 -70 -60 -35 -73 -59 -78 -146 -4 -92 -29 -146
-80 -179 -23 -15 -38 -32 -38 -44 0 -19 5 -20 93 -14 50 3 101 2 111 -2 18 -7
18 -8 -4 -24 -21 -14 -23 -21 -14 -44 14 -40 52 -50 108 -29 41 16 45 21 48
54 3 37 3 37 51 38 80 3 97 10 97 44 0 25 -4 30 -36 36 -19 4 -38 12 -40 18
-3 7 -6 67 -7 133 -2 112 -4 123 -26 147 -13 14 -36 28 -52 31 -15 4 -33 13
-39 20 -17 21 -2 120 21 141 10 9 19 22 19 29 0 6 14 37 31 69 17 31 28 63 26
71 -7 16 -97 84 -144 109 -18 9 -68 21 -110 26 -43 5 -123 16 -178 24 -55 9
-167 25 -250 36 -150 21 -210 34 -232 52 -9 7 -4 26 17 76 15 37 38 111 51
165 20 84 26 98 46 103 13 4 23 11 23 16 0 6 -13 7 -32 2 -47 -11 -203 -7
-227 6 -36 19 -40 41 -25 120 22 116 52 198 99 271 36 55 53 71 99 94 48 24
61 26 82 16 37 -16 25 -34 -30 -46 -55 -12 -86 -43 -86 -85 0 -52 21 -54 88
-5 73 53 110 114 93 151 -11 25 -19 27 -86 24 l-40 -1 27 27 c22 23 36 28 68
27 22 -1 42 2 45 8 4 5 27 9 52 9 24 0 58 8 74 17 34 20 49 11 25 -16 -24 -27
-11 -46 14 -21 11 11 30 21 42 24 86 16 103 22 106 39 3 14 -4 17 -42 17 -25
0 -48 -4 -51 -10 -3 -5 -11 -10 -16 -10 -6 0 -7 5 -4 10 4 6 -10 10 -34 10
-44 0 -51 12 -25 41 18 20 13 50 -8 48 -7 0 -31 -12 -53 -25z m-172 -335 c-7
-7 -20 -8 -30 -5 -17 7 -17 8 1 22 23 17 48 2 29 -17z m567 -1069 c0 -5 -7 -7
-15 -4 -8 4 -15 8 -15 10 0 2 7 4 15 4 8 0 15 -4 15 -10z"/>
<path d="M12275 3213 c-27 -8 -61 -20 -75 -25 l-25 -10 23 -15 c12 -9 22 -21
22 -27 1 -13 65 -56 84 -56 6 0 29 -9 51 -20 47 -24 45 -24 45 -5 0 8 -4 15
-8 15 -5 0 -17 7 -28 16 -18 14 -16 15 28 9 87 -11 59 36 -29 50 -49 8 -58 25
-14 25 40 0 49 19 21 42 -26 21 -29 21 -95 1z"/>
<path d="M2 3165 c0 -16 2 -22 5 -12 2 9 2 23 0 30 -3 6 -5 -1 -5 -18z"/>
<path d="M12270 3028 c0 -31 7 -39 63 -82 51 -39 71 -40 48 -4 -9 14 -10 23
-2 31 18 18 13 26 -26 46 -68 34 -83 35 -83 9z"/>
<path d="M12058 2952 c-72 -54 -82 -80 -46 -119 37 -40 55 -46 83 -27 39 26
58 70 51 117 -6 38 -6 39 19 35 34 -7 41 7 13 26 -34 24 -52 20 -120 -32z m68
-46 c7 -19 -13 -56 -31 -56 -10 0 -15 11 -15 35 0 29 4 35 20 35 11 0 23 -6
26 -14z"/>
<path d="M11160 2926 c-73 -21 -100 -35 -100 -51 0 -19 21 -19 67 0 43 18 68
19 168 4 63 -10 75 -14 75 -31 0 -16 3 -17 20 -8 12 6 36 8 56 4 31 -6 35 -4
32 11 -2 14 -31 26 -123 52 -134 37 -133 37 -195 19z"/>
<path d="M12295 2918 c-2 -7 -6 -40 -7 -73 -3 -50 -6 -60 -23 -64 -10 -2 -51
-23 -90 -48 -38 -24 -94 -55 -124 -69 -36 -17 -51 -28 -44 -35 7 -7 44 5 112
35 55 25 107 46 114 46 7 0 30 9 52 20 22 11 47 20 57 20 25 0 48 39 48 80 0
28 -8 41 -40 68 -43 36 -49 38 -55 20z"/>
<path d="M11711 2872 c-13 -24 -3 -38 42 -57 26 -11 52 -13 92 -9 44 5 55 4
55 -8 0 -28 -24 -38 -93 -38 -53 0 -73 4 -82 17 -14 19 -35 9 -35 -18 0 -17 8
-19 95 -19 83 0 97 -2 114 -21 32 -34 48 -19 49 45 0 58 -8 75 -50 97 -15 8
-22 8 -27 0 -4 -6 -29 -15 -57 -20 -50 -10 -74 -2 -74 25 0 22 -18 26 -29 6z"/>
<path d="M6176 2805 c-10 -26 54 -63 145 -84 102 -23 294 -37 304 -22 4 7 -9
11 -36 11 -23 0 -102 10 -176 21 -120 20 -138 25 -178 55 -50 39 -51 39 -59
19z"/>
<path d="M11950 2615 c0 -8 4 -15 9 -15 5 0 14 7 21 15 10 13 9 15 -9 15 -12
0 -21 -6 -21 -15z"/>
<path d="M1 2435 c-1 -117 4 -166 18 -223 11 -40 24 -78 29 -85 5 -7 33 -66
61 -132 28 -66 60 -132 71 -147 11 -15 20 -30 20 -34 0 -4 9 -18 21 -30 18
-19 45 -82 100 -229 30 -83 27 -93 -53 -173 -100 -98 -105 -101 -168 -102 -83
-1 -100 -7 -100 -41 0 -34 -2 -33 40 -13 26 13 37 14 51 6 35 -22 125 15 196
82 60 55 65 58 90 47 14 -7 29 -8 33 -4 4 4 4 49 1 98 -6 70 -13 101 -34 140
-15 28 -50 104 -78 170 -41 96 -52 135 -56 193 -3 40 -9 75 -14 78 -5 3 -15
-10 -23 -28 l-14 -33 -21 50 c-12 28 -33 73 -46 101 -14 28 -25 56 -25 61 0 6
-9 39 -21 74 -11 35 -33 123 -49 194 l-28 130 -1 -150z"/>
<path d="M6498 2403 c-26 -30 -37 -58 -29 -72 11 -18 51 34 51 65 0 29 -2 29
-22 7z"/>
<path d="M2610 2071 c0 -26 113 -64 270 -90 100 -17 136 -18 309 -10 218 11
244 14 238 32 -3 9 -39 11 -143 7 -310 -11 -459 2 -576 51 -49 20 -98 25 -98
10z"/>
<path d="M4530 1928 c-47 -22 -80 -43 -74 -45 14 -5 184 69 184 80 0 13 -24 6
-110 -35z"/>
<path d="M3469 1926 c-5 -5 -274 -33 -358 -38 -27 -2 -46 -8 -49 -17 -4 -11
14 -12 104 -7 60 4 134 11 164 16 30 5 71 12 91 15 34 5 86 34 63 35 -6 0 -13
-2 -15 -4z"/>
<path d="M2844 1885 c11 -8 36 -15 57 -15 20 0 57 -3 83 -6 37 -5 46 -4 46 8
0 17 -59 28 -149 28 -51 -1 -54 -2 -37 -15z"/>
<path d="M3743 1887 c-49 -18 -50 -27 -5 -27 50 0 72 8 72 26 0 17 -23 17 -67
1z"/>
<path d="M3620 1860 c-8 -5 -12 -12 -8 -15 10 -10 49 5 43 16 -8 11 -16 11
-35 -1z"/>
<path d="M4065 1810 c-27 -5 -89 -14 -137 -20 -102 -14 -124 -37 -25 -26 122
13 225 31 227 41 2 13 -7 14 -65 5z"/>
<path d="M4166 1791 c-14 -5 -16 -10 -7 -15 15 -9 41 -1 41 14 0 11 -7 12 -34
1z"/>
<path d="M2965 492 c-74 -5 -81 -22 -9 -22 32 -1 158 -5 279 -10 120 -5 222
-7 224 -4 11 11 -26 23 -84 28 -84 7 -350 13 -410 8z"/>
<path d="M3077 320 c-145 -4 -171 -8 -181 -23 -16 -21 -52 -22 -60 -2 -4 11
-23 15 -78 15 -66 0 -110 -11 -97 -24 2 -3 38 -7 79 -10 41 -3 89 -9 106 -12
18 -3 56 1 86 9 62 16 215 22 231 8 7 -5 40 -6 79 -2 37 4 77 3 90 -2 14 -5
43 -4 75 4 38 9 56 9 65 1 14 -11 1430 -16 1476 -5 12 3 22 10 22 15 0 6 -170
8 -467 5 -298 -2 -557 1 -713 9 -328 17 -511 20 -713 14z"/>
<path d="M12490 175 c-6 -5 -43 -21 -83 -35 -58 -20 -73 -29 -75 -47 -4 -27
10 -30 29 -7 8 10 21 13 38 9 14 -4 78 -6 141 -6 76 1 131 -4 163 -14 48 -14
48 -14 57 11 17 43 12 74 -13 83 -34 13 -246 18 -257 6z"/>
</g>
</svg>
